<svg xmlns="http://www.w3.org/2000/svg">
  <symbol id="loading-logo" viewBox="0 234.4 612 167.8">
    <path class="bar--background" d="M26.7,334.4c0-7.3-6-13.2-13.3-13.2S0,327.1,0,334.4v27.9c0,7.3,6,13.3,13.3,13.3s13.3-6,13.3-13.3V334.4z" />
    <path class="loading-logo__bar bar--1" d="M26.7,334.4c0-7.3-6-13.2-13.3-13.2S0,327.1,0,334.4v27.9c0,7.3,6,13.3,13.3,13.3s13.3-6,13.3-13.3V334.4z" />
    <path class="bar--background" d="M99.9,297.8c0-7.3-6-13.3-13.3-13.3c-7.3,0-13.3,6-13.3,13.3v64.5c0,7.3,6,13.3,13.3,13.3
  			c7.3,0,13.3-6,13.3-13.3V297.8z" />
    <path class="loading-logo__bar bar--2" d="M99.9,297.8c0-7.3-6-13.3-13.3-13.3c-7.3,0-13.3,6-13.3,13.3v64.5c0,7.3,6,13.3,13.3,13.3
		c7.3,0,13.3-6,13.3-13.3V297.8z" />
    <path class="bar--background" d="M173,247.7c0-7.3-6-13.2-13.3-13.2c-7.3,0-13.3,6-13.3,13.2v141.2c0,7.3,6,13.3,13.3,13.3
				c7.3,0,13.3-6,13.3-13.3V247.7z" />
    <path class="loading-logo__bar bar--3" d="M173,247.7c0-7.3-6-13.2-13.3-13.2c-7.3,0-13.3,6-13.3,13.2v141.2c0,7.3,6,13.3,13.3,13.3
		c7.3,0,13.3-6,13.3-13.3V247.7z" />
    <path class="bar--background" d="M246.1,297.8c0-7.3-6-13.3-13.3-13.3s-13.3,6-13.3,13.3v64.5c0,7.3,6,13.3,13.3,13.3s13.3-6,13.3-13.3V297.8z" />
    <path class="loading-logo__bar bar--4" d="M246.1,297.8c0-7.3-6-13.3-13.3-13.3s-13.3,6-13.3,13.3v64.5c0,7.3,6,13.3,13.3,13.3s13.3-6,13.3-13.3V297.8z" />
    <path class="bar--background" d="M319.3,334.4c0-7.3-6-13.2-13.2-13.2c-7.3,0-13.3,6-13.3,13.2v27.9c0,7.3,6,13.3,13.3,13.3s13.2-6,13.2-13.3
				V334.4z" />
    <path class="loading-logo__bar bar--5" d="M319.3,334.4c0-7.3-6-13.2-13.2-13.2c-7.3,0-13.3,6-13.3,13.2v27.9c0,7.3,6,13.3,13.3,13.3s13.2-6,13.2-13.3
						V334.4z" />
    <path class="bar--background" d="M392.5,297.8c0-7.3-6-13.3-13.3-13.3s-13.3,6-13.3,13.3v64.5c0,7.3,6,13.3,13.3,13.3s13.3-6,13.3-13.3V297.8z" />
    <path class="loading-logo__bar bar--6" d="M392.5,297.8c0-7.3-6-13.3-13.3-13.3s-13.3,6-13.3,13.3v64.5c0,7.3,6,13.3,13.3,13.3s13.3-6,13.3-13.3V297.8z" />
    <path class="bar--background" d="M465.7,247.7c0-7.3-6-13.2-13.3-13.2c-7.3,0-13.3,6-13.3,13.2v141.2c0,7.3,6,13.3,13.3,13.3
								c7.3,0,13.3-6,13.3-13.3V247.7z" />
    <path class="loading-logo__bar bar--7" d="M465.7,247.7c0-7.3-6-13.2-13.3-13.2c-7.3,0-13.3,6-13.3,13.2v141.2c0,7.3,6,13.3,13.3,13.3
										c7.3,0,13.3-6,13.3-13.3V247.7z" />
    <path class="bar--background" d="M538.9,297.8c0-7.3-6-13.3-13.5-13.3c-7.3,0-13.3,6-13.3,13.3v64.5c0,7.3,6,13.3,13.3,13.3
												c7.5,0,13.5-6,13.5-13.3V297.8z" />
    <path class="loading-logo__bar bar--8" d="M538.9,297.8c0-7.3-6-13.3-13.5-13.3c-7.3,0-13.3,6-13.3,13.3v64.5c0,7.3,6,13.3,13.3,13.3
														c7.5,0,13.5-6,13.5-13.3V297.8z" />
    <path class="bar--background" d="M612,334.4c0-7.3-6-13.2-13.3-13.2s-13.3,6-13.3,13.2v27.9c0,7.3,6,13.3,13.3,13.3s13.3-6,13.3-13.3V334.4z" />
    <path class="loading-logo__bar bar--9" d="M612,334.4c0-7.3-6-13.2-13.3-13.2s-13.3,6-13.3,13.2v27.9c0,7.3,6,13.3,13.3,13.3s13.3-6,13.3-13.3V334.4z" />
  </symbol>
</svg>
